<?xml version="1.0" encoding="UTF-8" standalone="no"?>
<!DOCTYPE svg PUBLIC "-//W3C//DTD SVG 1.1//EN"
 "http://www.w3.org/Graphics/SVG/1.1/DTD/svg11.dtd">
<!-- Generated by graphviz version 14.1.3 (20260303.0454)
 -->
<!-- Pages: 1 -->
<svg width="314pt" height="293pt"
 viewBox="0.00 0.00 314.00 293.00" xmlns="http://www.w3.org/2000/svg" xmlns:xlink="http://www.w3.org/1999/xlink">
<g id="graph0" class="graph" transform="scale(1 1) rotate(0) translate(4 289.25)">
<polygon fill="white" stroke="none" points="-4,4 -4,-289.25 310.25,-289.25 310.25,4 -4,4"/>
<g id="clust3" class="cluster">
<title>cluster_associated</title>
</g>
<!-- SpatialObject -->
<g id="node1" class="node">
<title>SpatialObject</title>
<g id="a_node1"><a xlink:href="../SpatialObject" xlink:title="&lt;TABLE&gt;">
<polygon fill="lightgray" stroke="none" points="72.25,-259.12 72.25,-275.38 146.25,-275.38 146.25,-259.12 72.25,-259.12"/>
<text xml:space="preserve" text-anchor="start" x="73.25" y="-263.12" font-family="Arial" font-size="12.00">SpatialObject</text>
<polygon fill="none" stroke="black" points="71.25,-258.12 71.25,-276.38 147.25,-276.38 147.25,-258.12 71.25,-258.12"/>
</a>
</g>
</g>
<!-- Geometry -->
<g id="node2" class="node">
<title>Geometry</title>
<g id="a_node2"><a xlink:href="../Geometry" xlink:title="&lt;TABLE&gt;">
<polygon fill="lightgray" stroke="none" points="1,-196 1,-212.25 217.5,-212.25 217.5,-196 1,-196"/>
<text xml:space="preserve" text-anchor="start" x="83.38" y="-200" font-family="Arial" font-size="12.00">Geometry</text>
<text xml:space="preserve" text-anchor="start" x="2" y="-183.75" font-family="Arial" font-size="12.00">asDGGS : dggsLiteral</text>
<text xml:space="preserve" text-anchor="start" x="2" y="-167.5" font-family="Arial" font-size="12.00">asGeoJSON : geoJSONLiteral</text>
<text xml:space="preserve" text-anchor="start" x="2" y="-151.25" font-family="Arial" font-size="12.00">asGML : gmlLiteral</text>
<text xml:space="preserve" text-anchor="start" x="2" y="-135" font-family="Arial" font-size="12.00">asKML : kmlLiteral</text>
<text xml:space="preserve" text-anchor="start" x="2" y="-118.75" font-family="Arial" font-size="12.00">asWKT : wktLiteral</text>
<text xml:space="preserve" text-anchor="start" x="2" y="-102.5" font-family="Arial" font-size="12.00">coordinateDimension : xsd:integer</text>
<text xml:space="preserve" text-anchor="start" x="2" y="-86.25" font-family="Arial" font-size="12.00">dimension : xsd:integer</text>
<text xml:space="preserve" text-anchor="start" x="2" y="-70" font-family="Arial" font-size="12.00">hasMetricSpatialAccuracy : xsd:double</text>
<text xml:space="preserve" text-anchor="start" x="2" y="-53.75" font-family="Arial" font-size="12.00">hasMetricSpatialResolution : xsd:double</text>
<text xml:space="preserve" text-anchor="start" x="2" y="-37.5" font-family="Arial" font-size="12.00">isEmpty : xsd:boolean</text>
<text xml:space="preserve" text-anchor="start" x="2" y="-21.25" font-family="Arial" font-size="12.00">isSimple : xsd:boolean</text>
<text xml:space="preserve" text-anchor="start" x="2" y="-5" font-family="Arial" font-size="12.00">spatialDimension : xsd:integer</text>
<polygon fill="none" stroke="black" points="0,0 0,-213.25 218.5,-213.25 218.5,0 0,0"/>
</a>
</g>
</g>
<!-- Geometry&#45;&gt;SpatialObject -->
<g id="edge1" class="edge">
<title>Geometry&#45;&gt;SpatialObject</title>
<path fill="none" stroke="black" d="M109.25,-213.06C109.25,-222.01 109.25,-230.45 109.25,-237.86"/>
<polygon fill="none" stroke="black" points="105.75,-237.76 109.25,-247.76 112.75,-237.76 105.75,-237.76"/>
</g>
<!-- Invis -->
</g>
</svg>
